<svg viewBox="0 0 64 64" xmlns="http://www.w3.org/2000/svg" xmlns:bx="https://boxy-svg.com">
  <defs></defs>
  <g transform="matrix(1.282711, 0.453426, -0.453426, 1.282711, -18.481081, -34.244751)" style="" bx:origin="0.537 0.498">
    <path d="M 56.55 43.972 C 54.352 43.969 52.155 43.842 49.972 43.592 C 43.402 42.846 37.342 41.083 32.91 38.628 C 28.424 36.143 26.129 33.233 26.447 30.435 C 26.667 28.496 28.541 26.76 32.176 25.13 C 32.319 25.065 32.48 25.181 32.463 25.338 C 32.455 25.411 32.409 25.473 32.343 25.504 C 28.852 27.07 27.056 28.698 26.854 30.481 C 26.556 33.104 28.778 35.87 33.109 38.27 C 37.496 40.699 43.5 42.444 50.017 43.185 C 56.534 43.925 62.778 43.57 67.597 42.186 C 72.357 40.82 75.142 38.621 75.44 35.999 C 75.641 34.224 74.664 32.343 72.613 30.558 C 72.495 30.454 72.532 30.261 72.682 30.209 C 72.751 30.185 72.827 30.2 72.883 30.248 C 75.039 32.126 76.065 34.13 75.847 36.045 C 75.529 38.843 72.64 41.164 67.71 42.58 C 64.501 43.502 60.67 43.972 56.55 43.972 Z" style="fill: rgb(243, 161, 179);"></path>
    <path d="M 56.398 43.384 C 54.227 43.382 52.057 43.255 49.9 43.009 C 43.411 42.272 37.425 40.531 33.048 38.106 C 28.617 35.651 26.351 32.777 26.665 30.013 C 26.881 28.098 28.733 26.383 32.323 24.773 C 32.464 24.71 32.623 24.824 32.606 24.979 C 32.599 25.051 32.553 25.112 32.488 25.143 C 29.04 26.69 27.266 28.298 27.066 30.059 C 26.772 32.65 28.967 35.382 33.244 37.752 C 37.577 40.151 43.508 41.875 49.945 42.607 C 56.382 43.338 62.549 42.987 67.309 41.62 C 72.011 40.271 74.762 38.099 75.056 35.509 C 75.254 33.756 74.29 31.898 72.263 30.135 C 72.147 30.032 72.184 29.841 72.332 29.79 C 72.399 29.767 72.475 29.781 72.531 29.829 C 74.659 31.684 75.673 33.664 75.458 35.555 C 75.143 38.318 72.29 40.611 67.421 42.009 C 64.251 42.92 60.467 43.384 56.398 43.384 Z" style="fill: rgb(243, 161, 179);"></path>
    <path d="M 56.822 43.711 C 54.636 43.708 52.452 43.582 50.281 43.333 C 43.748 42.591 37.722 40.839 33.315 38.397 C 28.853 35.926 26.572 33.032 26.888 30.249 C 27.107 28.322 28.97 26.594 32.584 24.975 C 32.727 24.91 32.887 25.026 32.871 25.181 C 32.863 25.254 32.816 25.315 32.751 25.347 C 29.279 26.904 27.493 28.522 27.292 30.296 C 26.996 32.904 29.206 35.654 33.512 38.04 C 37.874 40.457 43.845 42.192 50.326 42.929 C 56.807 43.664 63.016 43.312 67.808 41.935 C 72.541 40.576 75.311 38.39 75.607 35.783 C 75.807 34.018 74.836 32.148 72.796 30.372 C 72.679 30.269 72.716 30.077 72.865 30.025 C 72.934 30.001 73.01 30.016 73.064 30.064 C 75.209 31.932 76.229 33.924 76.012 35.829 C 75.695 38.611 72.823 40.919 67.921 42.328 C 64.73 43.244 60.919 43.711 56.822 43.711 Z" style="fill: rgb(243, 161, 179);"></path>
    <circle cx="51.683" cy="33.583" r="21.113" fill="#f27294"></circle>
    <circle cx="50.751" cy="24.993" r="3.105" opacity="0.2"></circle>
    <circle cx="50.751" cy="45.796" r="5.382" opacity="0.2"></circle>
    <circle cx="35.123" cy="37.619" r="1.345" opacity="0.2"></circle>
    <circle cx="57.883" cy="20.324" r="0.715" opacity="0.2"></circle>
    <circle cx="49.82" cy="34.514" r="0.931" opacity="0.2"></circle>
    <circle cx="67.217" cy="29.454" r="0.715" opacity="0.2"></circle>
    <circle cx="61.31" cy="36.749" r="1.033" opacity="0.2"></circle>
    <circle cx="38.642" cy="24.993" r="1.345" opacity="0.2"></circle>
    <path d="M 56.555 43.582 C 54.357 43.579 52.16 43.452 49.977 43.202 C 43.407 42.456 37.347 40.693 32.915 38.238 C 28.429 35.753 26.134 32.843 26.452 30.045 C 26.672 28.106 28.546 26.37 32.181 24.74 C 32.324 24.675 32.485 24.791 32.468 24.948 C 32.46 25.021 32.414 25.083 32.348 25.114 C 28.857 26.68 27.061 28.308 26.859 30.091 C 26.561 32.714 28.783 35.48 33.114 37.88 C 37.501 40.309 43.505 42.054 50.022 42.795 C 56.539 43.535 62.783 43.18 67.602 41.796 C 72.362 40.43 75.147 38.231 75.445 35.609 C 75.646 33.834 74.669 31.953 72.618 30.168 C 72.5 30.064 72.537 29.871 72.687 29.819 C 72.756 29.795 72.832 29.81 72.888 29.858 C 75.044 31.736 76.07 33.74 75.852 35.655 C 75.534 38.453 72.645 40.774 67.715 42.19 C 64.506 43.112 60.675 43.582 56.555 43.582 Z" style="fill: rgb(243, 161, 179);"></path>
  </g>
</svg>